<svg version="1.1" xmlns="http://www.w3.org/2000/svg" viewBox="0 0 108.53242128579689 103.27898023849389" width="217.06484257159377" height="206.55796047698777">
  <!-- svg-source:excalidraw -->
  
  <defs>
    <style class="style-fonts">
      
    </style>
    
  </defs>
  <rect x="0" y="0" width="108.53242128579689" height="103.27898023849389" fill="#ffffff"></rect><g transform="translate(17.69925795362292 29.67507742095927) rotate(0 36.566952689275524 23.038075667149315)" stroke="none"><path fill="#1e1e1e" d="M -4.96,-1.27 Q -4.96,-1.27 -4.79,-2.25 -4.62,-3.23 -3.08,-5.40 -1.54,-7.57 0.56,-8.20 2.67,-8.83 5.84,-9.10 9.01,-9.37 13.26,-9.73 17.52,-10.09 20.94,-10.26 24.36,-10.42 27.59,-10.52 30.82,-10.63 34.07,-10.64 37.32,-10.65 41.98,-10.34 46.63,-10.03 52.46,-9.23 58.28,-8.43 62.81,-7.12 67.34,-5.82 70.14,-4.80 72.94,-3.79 75.09,-2.60 77.23,-1.42 79.09,0.43 80.94,2.29 82.28,4.64 83.63,6.99 84.32,10.07 85.00,13.16 84.65,16.86 84.30,20.56 82.67,24.38 81.05,28.20 78.11,31.93 75.18,35.66 71.22,39.39 67.27,43.13 62.59,46.73 57.91,50.34 53.57,53.20 49.24,56.07 45.08,58.21 40.91,60.36 35.05,62.13 29.18,63.89 21.72,63.95 14.26,64.02 8.57,61.97 2.87,59.92 -0.35,56.39 -3.59,52.86 -5.59,48.17 -7.58,43.48 -8.24,38.17 -8.90,32.86 -8.08,27.32 -7.27,21.78 -4.99,16.38 -2.72,10.97 0.91,6.05 4.55,1.13 9.25,-2.94 13.95,-7.03 19.39,-10.04 24.83,-13.05 30.72,-14.93 36.60,-16.81 42.58,-17.78 48.56,-18.75 54.52,-18.57 60.48,-18.39 66.25,-16.40 72.01,-14.41 76.00,-13.00 79.98,-11.58 80.36,-11.38 80.73,-11.17 81.02,-10.86 81.31,-10.54 81.48,-10.15 81.66,-9.76 81.69,-9.33 81.73,-8.91 81.63,-8.49 81.54,-8.08 81.31,-7.72 81.08,-7.35 80.75,-7.08 80.42,-6.81 80.02,-6.66 79.62,-6.51 79.20,-6.49 78.77,-6.48 78.36,-6.60 77.95,-6.72 77.60,-6.96 77.25,-7.21 77.00,-7.55 76.74,-7.90 76.62,-8.31 76.49,-8.71 76.49,-9.14 76.50,-9.57 76.64,-9.97 76.79,-10.37 77.05,-10.71 77.31,-11.04 77.67,-11.28 78.03,-11.51 78.44,-11.62 78.86,-11.73 79.28,-11.70 79.71,-11.67 80.10,-11.50 80.50,-11.34 80.82,-11.05 81.14,-10.77 81.35,-10.40 81.57,-10.03 81.65,-9.61 81.74,-9.19 81.68,-8.77 81.63,-8.35 81.45,-7.96 81.26,-7.58 80.96,-7.27 80.66,-6.97 80.28,-6.77 79.90,-6.58 79.48,-6.52 79.05,-6.46 78.63,-6.53 78.21,-6.61 78.21,-6.61 78.21,-6.61 74.23,-8.03 70.25,-9.45 65.24,-11.29 60.23,-13.14 54.80,-13.34 49.37,-13.55 43.78,-12.66 38.18,-11.78 32.77,-10.10 27.36,-8.41 22.37,-5.71 17.39,-3.00 13.09,0.66 8.78,4.34 5.47,8.72 2.16,13.10 0.09,17.87 -1.97,22.64 -2.74,27.46 -3.52,32.28 -3.01,36.86 -2.51,41.43 -0.92,45.37 0.66,49.30 2.87,52.09 5.08,54.88 9.71,56.61 14.35,58.34 20.94,58.30 27.53,58.27 32.79,56.62 38.05,54.97 41.83,52.88 45.60,50.78 49.60,47.89 53.60,45.00 57.80,41.44 61.99,37.88 65.24,34.36 68.50,30.83 70.51,27.68 72.53,24.53 73.63,21.94 74.72,19.34 75.06,17.02 75.40,14.70 74.70,11.38 73.99,8.07 71.91,5.75 69.83,3.43 67.69,2.34 65.56,1.25 61.53,0.40 57.50,-0.43 52.08,-0.71 46.67,-1.00 42.14,-0.66 37.62,-0.31 34.54,-0.14 31.46,0.03 28.47,0.30 25.48,0.56 22.13,1.09 18.78,1.62 14.21,2.04 9.63,2.47 7.61,0.97 5.59,-0.52 5.27,0.37 4.96,1.27 4.73,1.84 4.51,2.42 4.15,2.93 3.80,3.43 3.33,3.83 2.86,4.24 2.32,4.52 1.77,4.80 1.16,4.95 0.56,5.09 -0.04,5.08 -0.66,5.08 -1.26,4.92 -1.86,4.77 -2.40,4.48 -2.95,4.18 -3.41,3.77 -3.86,3.36 -4.21,2.84 -4.56,2.33 -4.77,1.75 -4.98,1.17 -5.05,0.56 -5.12,-0.05 -5.04,-0.66 -4.96,-1.27 -4.96,-1.27 L -4.96,-1.27 Z"></path></g><g transform="translate(31.36109913448763 38.55201792340927) rotate(0 19.061814158205948 20.91517171776593)" stroke="none"><path fill="#e03131" d="M 3.52,3.17 Q 3.52,3.17 2.90,4.01 2.28,4.84 0.97,6.66 -0.34,8.48 -1.38,10.33 -2.42,12.19 -2.91,14.40 -3.40,16.61 -3.56,19.38 -3.71,22.14 -3.74,24.50 -3.76,26.85 -2.51,28.58 -1.25,30.32 0.42,31.72 2.10,33.12 4.12,34.27 6.14,35.42 8.55,34.81 10.96,34.21 13.03,33.26 15.10,32.31 17.16,31.27 19.22,30.23 21.28,29.31 23.34,28.38 25.26,27.43 27.18,26.48 29.08,25.32 30.99,24.15 32.52,22.35 34.05,20.56 35.83,18.94 37.62,17.32 38.82,15.42 40.03,13.53 40.17,11.24 40.31,8.96 42.35,11.70 44.39,14.44 42.61,12.87 40.83,11.31 38.45,10.65 36.07,9.98 33.84,9.05 31.62,8.12 29.31,7.64 27.01,7.16 24.75,6.92 22.49,6.68 20.33,6.66 18.18,6.64 16.25,7.65 14.33,8.66 13.03,10.73 11.73,12.80 11.20,15.03 10.67,17.26 9.95,19.51 9.23,21.75 11.56,21.91 13.88,22.06 16.18,22.32 18.47,22.57 20.21,21.24 21.96,19.92 23.10,22.73 24.25,25.55 22.43,24.05 20.62,22.56 18.14,22.45 15.67,22.35 17.79,20.41 19.92,18.47 19.79,16.29 19.67,14.11 17.44,11.73 15.20,9.36 17.43,8.83 19.67,8.30 22.12,7.55 24.57,6.80 26.59,6.13 28.61,5.45 31.15,4.57 33.69,3.68 35.82,3.61 37.94,3.54 36.51,5.42 35.09,7.30 36.64,5.76 38.20,4.22 40.07,2.87 41.94,1.52 43.61,6.63 45.29,11.73 43.15,11.69 41.01,11.66 38.52,11.45 36.03,11.25 33.77,11.23 31.51,11.21 29.42,11.68 27.33,12.15 25.22,13.04 23.10,13.93 21.01,15.59 18.92,17.24 17.56,13.46 16.20,9.68 16.87,10.75 17.54,11.82 17.83,13.05 18.12,14.27 18.01,15.53 17.89,16.79 17.38,17.94 16.87,19.10 16.02,20.03 15.17,20.96 14.06,21.57 12.96,22.18 11.72,22.40 10.47,22.63 9.23,22.45 7.98,22.26 6.85,21.69 5.73,21.12 4.84,20.22 3.96,19.32 3.41,18.18 2.86,17.04 2.70,15.79 2.55,14.54 2.80,13.30 3.05,12.06 3.68,10.97 4.31,9.88 5.26,9.05 6.21,8.21 7.37,7.73 8.54,7.24 9.80,7.15 11.06,7.06 12.28,7.38 13.50,7.70 14.56,8.39 15.61,9.08 16.39,10.07 17.17,11.06 17.60,12.25 18.02,13.44 18.04,14.70 18.06,15.96 17.68,17.16 17.29,18.37 16.55,19.38 15.80,20.40 14.77,21.13 13.74,21.85 12.53,22.21 11.32,22.57 10.05,22.52 8.79,22.47 7.61,22.03 6.43,21.58 5.46,20.78 4.48,19.98 4.48,19.98 4.48,19.98 7.08,12.14 9.68,4.31 11.31,2.93 12.94,1.56 14.98,0.58 17.02,-0.40 19.00,-1.21 20.98,-2.01 22.99,-2.87 24.99,-3.72 27.39,-3.99 29.78,-4.25 32.07,-4.23 34.36,-4.22 36.75,-4.14 39.15,-4.06 41.47,-3.81 43.80,-3.55 46.07,-2.95 48.34,-2.34 50.41,-1.03 52.48,0.27 52.63,6.51 52.78,12.74 50.98,14.01 49.18,15.27 47.26,16.49 45.33,17.70 42.08,17.58 38.83,17.46 36.33,18.60 33.82,19.74 31.55,20.52 29.27,21.30 26.51,22.19 23.74,23.08 21.56,23.63 19.37,24.17 16.13,24.34 12.89,24.50 10.43,23.57 7.96,22.64 6.50,18.81 5.04,14.99 6.31,12.49 7.58,9.99 9.72,8.74 11.85,7.48 14.66,7.27 17.48,7.06 19.96,7.17 22.45,7.29 25.68,8.35 28.92,9.42 30.97,10.90 33.03,12.38 34.72,14.22 36.41,16.06 37.30,19.02 38.19,21.97 37.46,24.00 36.73,26.03 35.39,27.70 34.06,29.38 32.53,30.98 31.01,32.58 29.05,34.08 27.09,35.57 25.15,36.50 23.21,37.43 19.97,37.74 16.73,38.05 14.04,37.75 11.34,37.45 8.75,36.71 6.16,35.97 3.99,35.08 1.83,34.19 -0.33,33.05 -2.50,31.91 -4.00,30.41 -5.51,28.91 -6.20,25.92 -6.89,22.92 -6.51,20.65 -6.13,18.37 -5.42,16.00 -4.71,13.63 -4.18,11.43 -3.66,9.23 -2.87,6.70 -2.08,4.16 -0.77,2.24 0.54,0.31 2.28,-1.52 4.03,-3.37 5.74,-4.73 7.46,-6.09 9.90,-7.16 12.34,-8.23 14.78,-8.69 17.23,-9.14 19.84,-9.16 22.46,-9.18 24.70,-8.99 26.94,-8.80 29.11,-8.48 31.28,-8.16 33.58,-7.66 35.87,-7.15 37.92,-6.31 39.98,-5.47 42.00,-4.79 44.03,-4.11 46.02,-3.33 48.00,-2.55 49.89,-1.03 51.77,0.49 53.19,2.11 54.60,3.74 55.34,6.63 56.07,9.51 56.08,11.90 56.08,14.29 55.64,16.56 55.20,18.84 53.88,20.94 52.56,23.05 51.25,24.86 49.94,26.66 48.52,28.31 47.11,29.96 45.45,31.45 43.80,32.95 42.30,34.62 40.80,36.29 38.97,37.58 37.14,38.86 35.06,39.95 32.97,41.03 30.81,42.04 28.65,43.05 26.66,43.87 24.67,44.70 22.76,45.70 20.84,46.70 18.85,47.52 16.86,48.35 14.62,49.34 12.39,50.34 9.55,50.50 6.72,50.66 4.46,50.21 2.20,49.76 -0.07,48.85 -2.35,47.94 -4.24,46.64 -6.12,45.34 -7.95,43.81 -9.78,42.28 -11.38,40.80 -12.99,39.32 -14.58,37.43 -16.16,35.54 -16.87,33.43 -17.58,31.32 -17.65,28.83 -17.72,26.34 -17.55,24.13 -17.39,21.93 -17.04,19.79 -16.69,17.66 -16.28,15.38 -15.86,13.10 -14.89,11.13 -13.92,9.17 -12.84,6.99 -11.75,4.81 -9.73,3.66 -7.70,2.51 -6.37,0.36 -5.05,-1.78 -4.28,-2.47 -3.52,-3.17 -3.08,-3.55 -2.65,-3.92 -2.14,-4.18 -1.63,-4.45 -1.08,-4.58 -0.52,-4.71 0.04,-4.70 0.61,-4.70 1.17,-4.56 1.72,-4.41 2.22,-4.14 2.73,-3.87 3.15,-3.49 3.57,-3.11 3.90,-2.63 4.22,-2.16 4.41,-1.62 4.61,-1.09 4.67,-0.52 4.74,0.04 4.66,0.61 4.59,1.17 4.38,1.71 4.17,2.24 3.84,2.71 3.51,3.17 3.51,3.17 L 3.52,3.17 Z"></path></g><g transform="translate(30.49276177129707 39.14899986060277) rotate(0 13.880734557835694 -2.3164708199280994)" stroke="none"><path fill="#e03131" d="M -1.98,-4.45 Q -1.98,-4.45 -0.89,-5.05 0.19,-5.65 2.18,-6.63 4.17,-7.60 6.38,-8.58 8.59,-9.56 11.19,-10.14 13.79,-10.72 16.13,-10.90 18.46,-11.09 20.87,-11.21 23.28,-11.34 28.14,-9.33 32.99,-7.33 33.57,-6.38 34.14,-5.44 34.38,-4.36 34.63,-3.29 34.51,-2.19 34.40,-1.09 33.94,-0.08 33.48,0.91 32.73,1.72 31.97,2.52 31.00,3.04 30.02,3.57 28.94,3.75 27.85,3.93 26.76,3.76 25.67,3.59 24.69,3.08 23.71,2.56 22.95,1.77 22.18,0.97 21.71,-0.02 21.25,-1.02 21.12,-2.12 21.00,-3.22 21.23,-4.29 21.46,-5.37 22.02,-6.32 22.59,-7.27 23.43,-7.99 24.26,-8.71 25.29,-9.12 26.31,-9.54 27.41,-9.60 28.52,-9.67 29.58,-9.38 30.65,-9.09 31.56,-8.47 32.48,-7.86 33.15,-6.98 33.83,-6.11 34.18,-5.06 34.54,-4.02 34.55,-2.91 34.55,-1.81 34.21,-0.76 33.86,0.28 33.19,1.16 32.53,2.04 31.62,2.67 30.71,3.29 29.65,3.59 28.58,3.89 27.48,3.84 26.38,3.78 25.35,3.38 24.32,2.97 23.48,2.26 22.63,1.55 22.63,1.55 22.63,1.55 22.37,1.79 22.11,2.02 19.92,1.91 17.72,1.80 15.46,1.76 13.20,1.71 11.05,2.07 8.91,2.43 6.62,3.03 4.34,3.62 3.16,4.04 1.98,4.45 1.42,4.63 0.86,4.80 0.27,4.83 -0.30,4.87 -0.88,4.76 -1.46,4.65 -2.00,4.41 -2.53,4.16 -3.00,3.80 -3.46,3.44 -3.82,2.97 -4.18,2.51 -4.42,1.97 -4.66,1.43 -4.76,0.85 -4.87,0.27 -4.83,-0.30 -4.79,-0.89 -4.62,-1.45 -4.44,-2.01 -4.13,-2.51 -3.83,-3.02 -3.41,-3.43 -2.99,-3.85 -2.49,-4.15 -1.98,-4.45 -1.98,-4.45 L -1.98,-4.45 Z"></path></g><g transform="translate(21.257632106530764 57.94850377367834) rotate(0 2.736167212136934 6.968407339604255)" stroke="none"><path fill="#e03131" d="M 2.47,0 Q 2.47,0 2.52,0.60 2.57,1.21 2.68,2.37 2.80,3.53 3.19,4.81 3.57,6.08 3.72,7.16 3.87,8.25 2.96,7.51 2.05,6.78 3.06,7.33 4.08,7.89 5.87,9.64 7.67,11.38 8.02,11.80 8.38,12.22 8.59,12.73 8.79,13.24 8.83,13.79 8.86,14.35 8.71,14.88 8.57,15.41 8.26,15.87 7.95,16.32 7.51,16.66 7.07,16.99 6.55,17.17 6.03,17.35 5.48,17.35 4.93,17.35 4.40,17.18 3.88,17.00 3.44,16.67 3.00,16.34 2.69,15.88 2.38,15.43 2.23,14.90 2.08,14.37 2.11,13.82 2.14,13.27 2.34,12.75 2.54,12.24 2.90,11.82 3.25,11.40 3.72,11.11 4.20,10.83 4.73,10.70 5.27,10.58 5.82,10.64 6.37,10.70 6.87,10.93 7.37,11.16 7.77,11.54 8.17,11.92 8.43,12.40 8.69,12.89 8.79,13.43 8.88,13.98 8.79,14.52 8.70,15.07 8.44,15.55 8.19,16.04 7.79,16.42 7.39,16.80 6.89,17.04 6.39,17.27 5.84,17.33 5.29,17.39 4.75,17.28 4.22,17.16 3.74,16.88 3.27,16.59 3.27,16.59 3.27,16.59 1.46,14.72 -0.34,12.84 -1.18,11.93 -2.03,11.03 -2.26,9.73 -2.50,8.43 -2.57,7.10 -2.64,5.77 -2.72,4.65 -2.80,3.53 -2.68,2.37 -2.57,1.21 -2.52,0.60 -2.47,0 -2.43,-0.29 -2.40,-0.59 -2.29,-0.87 -2.18,-1.14 -2.02,-1.39 -1.85,-1.63 -1.62,-1.83 -1.40,-2.03 -1.14,-2.17 -0.87,-2.31 -0.58,-2.38 -0.29,-2.45 0.00,-2.45 0.29,-2.45 0.58,-2.38 0.87,-2.31 1.14,-2.17 1.40,-2.03 1.62,-1.83 1.85,-1.63 2.02,-1.39 2.18,-1.14 2.29,-0.87 2.40,-0.59 2.43,-0.29 2.47,0.00 2.47,0.00 L 2.47,0 Z"></path></g><g transform="translate(18.922166406782935 53.993950698814615) rotate(0 0.7733629640915751 6.4455958855166955)" stroke="none"><path fill="#ffffff" d="M 2.49,0 Q 2.49,0 2.53,0.91 2.58,1.82 2.68,3.03 2.78,4.23 2.88,5.35 2.97,6.47 3.14,7.71 3.30,8.94 3.37,9.68 3.43,10.42 3.78,10.78 4.12,11.15 4.33,11.61 4.54,12.06 4.60,12.57 4.65,13.07 4.54,13.56 4.43,14.05 4.17,14.48 3.91,14.91 3.52,15.23 3.14,15.56 2.67,15.74 2.20,15.93 1.70,15.95 1.19,15.98 0.71,15.84 0.22,15.71 -0.18,15.42 -0.60,15.14 -0.90,14.74 -1.20,14.33 -1.36,13.86 -1.52,13.38 -1.52,12.87 -1.52,12.37 -1.35,11.89 -1.19,11.42 -0.89,11.02 -0.58,10.62 -0.16,10.34 0.25,10.06 0.73,9.92 1.22,9.79 1.72,9.82 2.22,9.85 2.69,10.04 3.16,10.23 3.54,10.55 3.92,10.88 4.18,11.31 4.44,11.75 4.54,12.24 4.65,12.73 4.59,13.23 4.54,13.73 4.32,14.19 4.11,14.64 3.76,15.01 3.42,15.37 2.97,15.61 2.52,15.84 2.03,15.92 1.53,16.00 1.03,15.91 0.54,15.83 0.09,15.59 -0.34,15.36 -0.34,15.36 -0.34,15.36 -1.60,12.57 -2.85,9.78 -2.91,8.12 -2.97,6.47 -2.88,5.35 -2.78,4.23 -2.68,3.03 -2.58,1.82 -2.53,0.91 -2.49,0 -2.45,-0.29 -2.42,-0.59 -2.31,-0.87 -2.20,-1.15 -2.03,-1.40 -1.86,-1.65 -1.64,-1.85 -1.41,-2.05 -1.15,-2.19 -0.88,-2.33 -0.59,-2.40 -0.30,-2.47 0.00,-2.47 0.30,-2.47 0.59,-2.40 0.88,-2.33 1.15,-2.19 1.41,-2.05 1.64,-1.85 1.86,-1.65 2.03,-1.40 2.20,-1.15 2.31,-0.87 2.42,-0.59 2.45,-0.29 2.49,0.00 2.49,0.00 L 2.49,0 Z"></path></g><g transform="translate(26.617806288059228 29.606334046373377) rotate(0 14.971583370343751 -0.031658133033033664)" stroke="none"><path fill="#ffffff" d="M 0,-2.63 Q 0,-2.63 1.03,-2.66 2.07,-2.69 3.15,-2.76 4.23,-2.83 5.62,-2.91 7.02,-2.99 8.21,-3.06 9.41,-3.12 10.62,-3.18 11.83,-3.24 13.00,-3.29 14.18,-3.34 15.40,-3.43 16.62,-3.52 17.77,-3.58 18.92,-3.63 20.01,-3.69 21.10,-3.75 22.23,-3.82 23.37,-3.89 24.43,-3.92 25.50,-3.95 28.56,-3.49 31.63,-3.03 32.11,-2.68 32.59,-2.32 32.93,-1.83 33.27,-1.34 33.43,-0.77 33.60,-0.20 33.57,0.39 33.55,0.98 33.33,1.54 33.12,2.10 32.74,2.56 32.35,3.01 31.85,3.33 31.34,3.64 30.76,3.77 30.18,3.91 29.58,3.85 28.99,3.79 28.45,3.55 27.90,3.30 27.47,2.90 27.03,2.49 26.74,1.97 26.46,1.44 26.36,0.86 26.25,0.27 26.34,-0.31 26.43,-0.90 26.71,-1.43 26.98,-1.96 27.41,-2.37 27.84,-2.79 28.38,-3.04 28.91,-3.30 29.51,-3.37 30.10,-3.44 30.68,-3.32 31.27,-3.20 31.78,-2.90 32.29,-2.59 32.69,-2.14 33.08,-1.69 33.30,-1.14 33.53,-0.59 33.57,-0.00 33.61,0.59 33.45,1.17 33.30,1.74 32.97,2.24 32.64,2.74 32.17,3.10 31.70,3.47 31.14,3.66 30.57,3.86 29.98,3.87 29.38,3.87 28.81,3.69 28.25,3.50 28.25,3.51 28.25,3.51 27.28,3.43 26.30,3.36 25.22,3.35 24.13,3.33 22.95,3.33 21.77,3.32 20.60,3.34 19.43,3.35 18.26,3.33 17.09,3.31 15.63,3.33 14.18,3.34 13.00,3.29 11.83,3.24 10.62,3.18 9.41,3.12 8.21,3.06 7.02,2.99 5.62,2.91 4.23,2.83 3.15,2.76 2.07,2.69 1.03,2.66 0,2.63 -0.31,2.59 -0.63,2.56 -0.92,2.44 -1.22,2.33 -1.48,2.15 -1.74,1.97 -1.95,1.73 -2.17,1.49 -2.31,1.21 -2.46,0.93 -2.54,0.62 -2.61,0.31 -2.61,-0.00 -2.61,-0.31 -2.54,-0.62 -2.46,-0.93 -2.31,-1.21 -2.17,-1.49 -1.95,-1.73 -1.74,-1.97 -1.48,-2.15 -1.22,-2.33 -0.92,-2.44 -0.63,-2.56 -0.31,-2.59 0.00,-2.63 0.00,-2.63 L 0,-2.63 Z"></path></g><g transform="translate(25.318918315620067 42.91360413726852) rotate(0 -1.2518530319330807 -0.07055241075920549)" stroke="none"><path fill="#ffffff" d="M 0,2.39 Q 0,2.39 -0.62,2.44 -1.25,2.50 -0.62,2.53 0,2.56 -0.30,2.52 -0.61,2.49 -0.90,2.38 -1.19,2.27 -1.44,2.09 -1.70,1.92 -1.90,1.68 -2.11,1.45 -2.25,1.18 -2.39,0.90 -2.47,0.60 -2.54,0.30 -2.54,-0.00 -2.54,-0.30 -2.47,-0.60 -2.39,-0.90 -2.25,-1.18 -2.11,-1.45 -1.90,-1.68 -1.70,-1.92 -1.44,-2.09 -1.19,-2.27 -0.90,-2.38 -0.61,-2.49 -0.30,-2.52 0.00,-2.56 0.45,-2.48 0.90,-2.39 1.26,-2.19 1.62,-1.98 1.90,-1.67 2.17,-1.35 2.33,-0.97 2.49,-0.59 2.52,-0.18 2.55,0.23 2.45,0.63 2.34,1.03 2.11,1.38 1.89,1.73 1.56,1.98 1.23,2.24 0.84,2.38 0.45,2.52 0.04,2.53 -0.37,2.53 -0.76,2.41 -1.16,2.28 -1.49,2.04 -1.83,1.79 -2.07,1.45 -2.30,1.11 -2.42,0.71 -2.54,0.32 -2.52,-0.09 -2.51,-0.50 -2.36,-0.89 -2.22,-1.28 -1.95,-1.60 -1.69,-1.92 -1.34,-2.14 -0.98,-2.36 -0.58,-2.46 -0.18,-2.55 0.23,-2.52 0.64,-2.48 1.02,-2.31 1.40,-2.14 1.70,-1.86 2.01,-1.58 2.21,-1.22 2.41,-0.85 2.49,-0.45 2.56,-0.04 2.50,0.36 2.44,0.77 2.25,1.14 2.06,1.51 1.77,1.80 1.47,2.09 1.10,2.27 0.72,2.46 0.31,2.51 -0.09,2.56 -0.04,2.56 0.00,2.56 -0.30,2.52 -0.61,2.49 -0.90,2.38 -1.19,2.27 -1.44,2.09 -1.70,1.92 -1.90,1.68 -2.11,1.45 -2.25,1.18 -2.39,0.90 -2.47,0.60 -2.54,0.30 -2.54,0.00 -2.54,-0.30 -2.47,-0.60 -2.39,-0.90 -2.25,-1.18 -2.11,-1.45 -1.90,-1.68 -1.70,-1.92 -1.44,-2.09 -1.19,-2.27 -0.90,-2.38 -0.61,-2.49 -0.30,-2.52 0,-2.56 -0.62,-2.53 -1.25,-2.50 -0.62,-2.44 0,-2.39 0.28,-2.35 0.57,-2.32 0.84,-2.22 1.11,-2.11 1.34,-1.95 1.58,-1.79 1.77,-1.57 1.96,-1.35 2.10,-1.10 2.23,-0.84 2.30,-0.56 2.37,-0.28 2.37,0.00 2.37,0.28 2.30,0.56 2.23,0.84 2.10,1.10 1.96,1.35 1.77,1.57 1.58,1.79 1.34,1.95 1.11,2.11 0.84,2.22 0.57,2.32 0.28,2.35 -0.00,2.39 -0.00,2.39 L 0,2.39 Z"></path></g><g transform="translate(32.9241063882306 21.378837530142846) rotate(0 -7.559962168277764 -1.8795885840728488)" stroke="none"><path fill="#2f9e44" d="M -0.27,1.99 Q -0.27,1.99 -1.71,1.83 -3.15,1.68 -5.16,1.12 -7.16,0.57 -9.59,-0.21 -12.03,-1.00 -13.82,-1.52 -15.61,-2.03 -15.87,-2.16 -16.13,-2.28 -16.34,-2.48 -16.55,-2.68 -16.68,-2.94 -16.82,-3.20 -16.86,-3.48 -16.91,-3.77 -16.86,-4.05 -16.81,-4.34 -16.67,-4.59 -16.53,-4.85 -16.32,-5.05 -16.11,-5.24 -15.84,-5.36 -15.58,-5.48 -15.29,-5.51 -15.00,-5.54 -14.72,-5.48 -14.44,-5.41 -14.19,-5.26 -13.94,-5.11 -13.76,-4.89 -13.57,-4.67 -13.47,-4.40 -13.36,-4.13 -13.35,-3.84 -13.34,-3.55 -13.42,-3.27 -13.49,-2.99 -13.66,-2.75 -13.82,-2.51 -14.06,-2.34 -14.29,-2.16 -14.56,-2.07 -14.84,-1.98 -15.13,-1.99 -15.42,-1.99 -15.69,-2.08 -15.97,-2.18 -16.20,-2.36 -16.43,-2.53 -16.59,-2.77 -16.75,-3.01 -16.82,-3.29 -16.90,-3.57 -16.88,-3.86 -16.86,-4.15 -16.75,-4.42 -16.64,-4.69 -16.45,-4.91 -16.26,-5.13 -16.01,-5.28 -15.76,-5.42 -15.48,-5.48 -15.20,-5.54 -14.91,-5.51 -14.62,-5.48 -14.62,-5.48 -14.62,-5.48 -12.83,-4.97 -11.04,-4.46 -8.62,-3.86 -6.21,-3.26 -4.39,-2.87 -2.57,-2.48 -1.14,-2.24 0.27,-1.99 0.51,-1.93 0.74,-1.87 0.96,-1.75 1.17,-1.64 1.35,-1.47 1.53,-1.31 1.66,-1.10 1.80,-0.90 1.88,-0.67 1.96,-0.44 1.99,-0.20 2.01,0.03 1.98,0.27 1.95,0.51 1.86,0.74 1.76,0.97 1.62,1.16 1.48,1.36 1.30,1.52 1.11,1.68 0.89,1.79 0.68,1.89 0.44,1.95 0.20,2.00 -0.03,2.00 -0.27,1.99 -0.27,1.99 L -0.27,1.99 Z"></path></g><g transform="translate(35.43504859679001 20.39291281568694) rotate(0 0 -4.765001280508159)" stroke="none"><path fill="#2f9e44" d="M -2.02,0 Q -2.02,0 -1.92,-2.73 -1.83,-5.47 -1.79,-7.50 -1.74,-9.53 -1.70,-9.80 -1.65,-10.08 -1.52,-10.33 -1.38,-10.58 -1.18,-10.78 -0.97,-10.97 -0.72,-11.09 -0.46,-11.21 -0.18,-11.24 0.09,-11.27 0.37,-11.21 0.64,-11.15 0.88,-11.00 1.13,-10.86 1.31,-10.64 1.49,-10.43 1.60,-10.16 1.70,-9.90 1.72,-9.62 1.73,-9.34 1.66,-9.06 1.58,-8.79 1.42,-8.56 1.26,-8.32 1.04,-8.15 0.81,-7.98 0.54,-7.89 0.28,-7.80 -0.00,-7.80 -0.28,-7.80 -0.55,-7.89 -0.81,-7.98 -1.04,-8.15 -1.26,-8.32 -1.42,-8.56 -1.58,-8.79 -1.66,-9.06 -1.73,-9.34 -1.72,-9.62 -1.70,-9.90 -1.60,-10.16 -1.49,-10.43 -1.31,-10.64 -1.13,-10.86 -0.88,-11.00 -0.64,-11.15 -0.36,-11.21 -0.09,-11.27 0.18,-11.24 0.46,-11.21 0.72,-11.09 0.98,-10.97 1.18,-10.78 1.39,-10.58 1.52,-10.33 1.65,-10.08 1.70,-9.80 1.74,-9.52 1.74,-9.52 1.74,-9.53 1.79,-7.50 1.83,-5.47 1.92,-2.73 2.02,0 1.99,0.24 1.96,0.48 1.87,0.71 1.79,0.94 1.65,1.14 1.51,1.34 1.33,1.50 1.15,1.66 0.93,1.77 0.71,1.89 0.48,1.95 0.24,2.00 -0.00,2.00 -0.24,2.00 -0.48,1.95 -0.71,1.89 -0.93,1.77 -1.15,1.66 -1.33,1.50 -1.51,1.34 -1.65,1.14 -1.79,0.94 -1.87,0.71 -1.96,0.48 -1.99,0.24 -2.02,-0.00 -2.02,-0.00 L -2.02,0 Z"></path></g><g transform="translate(34.092743756191226 18.862468213063494) rotate(0 -7.097753425996132 -4.431234106531747)" stroke="none"><path fill="#2f9e44" d="M -1.05,1.69 Q -1.05,1.69 -5.09,-0.93 -9.12,-3.55 -12.10,-5.49 -15.08,-7.43 -15.28,-7.61 -15.49,-7.79 -15.62,-8.03 -15.76,-8.26 -15.81,-8.53 -15.87,-8.79 -15.84,-9.06 -15.80,-9.33 -15.68,-9.58 -15.56,-9.82 -15.37,-10.02 -15.18,-10.21 -14.94,-10.33 -14.70,-10.46 -14.43,-10.50 -14.16,-10.54 -13.90,-10.49 -13.63,-10.44 -13.39,-10.31 -13.15,-10.18 -12.97,-9.98 -12.78,-9.78 -12.67,-9.53 -12.56,-9.28 -12.54,-9.01 -12.52,-8.74 -12.58,-8.47 -12.64,-8.21 -12.78,-7.98 -12.93,-7.75 -13.14,-7.58 -13.35,-7.40 -13.60,-7.31 -13.86,-7.21 -14.13,-7.20 -14.40,-7.19 -14.66,-7.27 -14.92,-7.35 -15.14,-7.50 -15.37,-7.66 -15.53,-7.88 -15.69,-8.10 -15.77,-8.35 -15.85,-8.61 -15.85,-8.89 -15.84,-9.16 -15.75,-9.41 -15.66,-9.67 -15.49,-9.88 -15.33,-10.10 -15.10,-10.24 -14.87,-10.39 -14.61,-10.46 -14.34,-10.53 -14.07,-10.51 -13.80,-10.49 -13.55,-10.39 -13.30,-10.28 -13.30,-10.28 -13.30,-10.28 -10.25,-8.46 -7.20,-6.63 -3.07,-4.16 1.05,-1.69 1.24,-1.54 1.43,-1.39 1.57,-1.20 1.72,-1.00 1.82,-0.78 1.91,-0.56 1.95,-0.32 1.99,-0.09 1.97,0.14 1.95,0.38 1.88,0.61 1.81,0.84 1.68,1.05 1.55,1.25 1.38,1.42 1.20,1.59 1.00,1.71 0.79,1.83 0.56,1.90 0.33,1.97 0.09,1.98 -0.14,1.99 -0.38,1.94 -0.62,1.89 -0.84,1.79 -1.05,1.69 -1.05,1.69 L -1.05,1.69 Z"></path></g><g transform="translate(70.58823951662089 83.15923188497732) rotate(0 0 -0.02894457877300738)" stroke="none"><path fill="#1e1e1e" d="M 2.12,-0.66 Q 2.12,-0.66 2.15,-0.13 2.18,0.40 1.96,0.88 1.74,1.36 1.32,1.69 0.91,2.02 0.38,2.12 -0.13,2.21 -0.64,2.05 -1.14,1.90 -1.52,1.52 -1.90,1.14 -2.05,0.64 -2.21,0.13 -2.12,-0.38 -2.02,-0.91 -1.69,-1.32 -1.36,-1.74 -0.88,-1.96 -0.39,-2.18 0.13,-2.15 0.66,-2.11 1.11,-1.84 1.57,-1.56 1.84,-1.11 L 2.12,-0.66 Z"></path></g><g transform="translate(72.88571545672926 82.337929462293) rotate(0 0.06241174797929716 0)" stroke="none"><path fill="#1e1e1e" d="M 2.12,-0.66 Q 2.12,-0.66 2.15,-0.13 2.18,0.40 1.96,0.88 1.74,1.36 1.32,1.69 0.91,2.02 0.38,2.12 -0.13,2.21 -0.64,2.05 -1.14,1.90 -1.52,1.52 -1.90,1.14 -2.05,0.64 -2.21,0.13 -2.12,-0.38 -2.02,-0.91 -1.69,-1.32 -1.36,-1.74 -0.88,-1.96 -0.39,-2.18 0.13,-2.15 0.66,-2.11 1.11,-1.84 1.57,-1.56 1.84,-1.11 L 2.12,-0.66 Z"></path></g></svg>
